<?xml version="1.0" standalone="no"?>
<!DOCTYPE svg PUBLIC "-//W3C//DTD SVG 20010904//EN"
 "http://www.w3.org/TR/2001/REC-SVG-20010904/DTD/svg10.dtd">
<svg version="1.0" xmlns="http://www.w3.org/2000/svg"
 width="1744.000000pt" height="1744.000000pt" viewBox="0 0 1744.000000 1744.000000"
 preserveAspectRatio="xMidYMid meet">
<metadata>
Created by potrace 1.11, written by Peter Selinger 2001-2013
</metadata>
<g transform="translate(0.000000,1744.000000) scale(0.100000,-0.100000)"
fill="#000000" stroke="none">
<path d="M8338 17425 c-1 -1 -59 -6 -128 -10 -69 -4 -141 -8 -160 -10 -19 -2
-69 -6 -110 -10 -81 -6 -155 -13 -210 -20 -69 -8 -276 -36 -300 -40 -14 -2
-83 -14 -155 -25 -308 -50 -705 -142 -1025 -237 -277 -82 -693 -229 -855 -303
-11 -5 -49 -21 -85 -36 -289 -118 -799 -379 -1080 -553 -45 -28 -84 -51 -86
-51 -3 0 -17 -9 -32 -19 -15 -11 -81 -54 -147 -97 -324 -210 -746 -531 -1030
-787 -436 -392 -804 -790 -1161 -1257 -678 -886 -1194 -1947 -1484 -3050 -35
-134 -111 -464 -124 -540 -2 -14 -13 -77 -25 -140 -11 -63 -23 -128 -25 -145
-12 -74 -25 -164 -31 -214 -4 -30 -8 -61 -10 -70 -1 -9 -6 -50 -10 -91 -4 -41
-9 -82 -10 -92 -2 -9 -6 -54 -10 -100 -3 -45 -8 -94 -10 -108 -4 -25 -12 -158
-21 -345 -13 -269 -3 -793 21 -1060 2 -27 7 -86 10 -130 4 -44 8 -87 10 -95 3
-8 7 -42 10 -75 7 -79 14 -134 20 -164 2 -14 7 -47 10 -75 3 -28 7 -58 10 -66
2 -8 7 -37 10 -65 13 -92 10 -76 54 -306 79 -408 192 -821 344 -1254 41 -117
186 -480 229 -575 16 -36 48 -105 71 -155 23 -49 87 -180 143 -290 358 -705
814 -1359 1369 -1964 73 -79 375 -382 465 -466 93 -87 289 -258 400 -349 52
-43 105 -87 117 -97 36 -29 333 -252 388 -290 28 -18 52 -36 55 -39 12 -13
336 -224 444 -290 471 -286 1065 -574 1521 -737 308 -109 654 -218 825 -258 8
-2 71 -17 140 -34 113 -27 267 -61 345 -76 68 -13 363 -64 405 -70 25 -3 56
-8 70 -10 27 -4 79 -11 150 -20 25 -3 61 -8 80 -10 50 -8 123 -14 215 -20 44
-3 91 -7 105 -10 151 -26 1209 -26 1350 0 8 1 57 6 108 9 51 4 100 9 110 11
10 2 49 6 87 10 65 6 98 10 165 20 14 2 79 11 145 20 290 39 790 148 1126 245
309 90 764 251 981 349 24 11 97 43 163 72 66 29 187 86 268 126 81 40 152 73
156 73 5 0 11 3 13 8 2 4 46 29 98 56 52 27 138 74 190 104 52 30 110 63 128
73 205 116 698 449 882 596 8 7 65 51 125 99 1218 963 2188 2293 2736 3752 49
129 146 409 154 442 2 8 22 76 45 150 88 287 189 722 235 1010 3 19 10 60 15
90 5 30 12 75 15 100 3 25 7 52 10 60 2 8 7 44 10 80 4 36 8 72 10 80 4 25 17
142 20 186 2 23 6 68 9 100 21 199 30 436 30 774 0 267 -9 588 -18 637 -3 11
-7 60 -10 110 -4 50 -8 99 -10 109 -2 11 -7 55 -10 99 -4 44 -9 87 -11 95 -2
8 -6 40 -10 70 -3 30 -7 66 -10 80 -2 14 -9 61 -15 105 -14 95 -39 244 -45
265 -2 8 -6 31 -9 51 -14 96 -118 554 -147 644 -5 17 -23 80 -40 140 -28 100
-70 236 -119 385 -177 534 -475 1174 -783 1685 -92 152 -254 406 -266 415 -3
3 -24 32 -45 65 -137 210 -509 677 -716 899 -267 288 -453 471 -684 674 -141
125 -383 322 -491 403 -33 24 -62 47 -65 50 -11 13 -323 232 -430 301 -111 73
-303 193 -365 228 -258 149 -297 169 -570 305 -622 307 -1222 521 -1890 675
-156 35 -328 71 -415 85 -19 4 -72 13 -118 21 -45 8 -99 16 -120 19 -20 2 -53
7 -72 9 -60 9 -103 15 -155 21 -27 3 -66 8 -85 10 -87 12 -188 21 -330 30 -58
4 -121 9 -140 12 -40 5 -896 13 -902 8z m847 -409 c61 -4 126 -8 145 -11 19
-2 80 -7 135 -11 55 -3 102 -8 105 -9 3 -2 39 -6 80 -10 41 -3 86 -8 100 -10
14 -3 45 -7 70 -10 25 -3 56 -7 70 -10 14 -3 43 -7 65 -10 70 -8 199 -30 415
-71 14 -3 86 -19 160 -35 74 -17 142 -32 151 -34 9 -2 86 -22 170 -45 1108
-296 2129 -809 3024 -1518 97 -77 274 -225 331 -277 6 -5 45 -39 85 -75 129
-113 530 -520 663 -672 223 -256 403 -485 587 -748 520 -741 923 -1588 1174
-2466 25 -89 47 -170 49 -180 2 -10 11 -48 21 -83 9 -35 15 -64 13 -66 -2 -2
-19 -7 -38 -13 -19 -5 -84 -26 -145 -45 -60 -20 -225 -72 -365 -117 -140 -45
-329 -105 -420 -135 -91 -29 -208 -67 -260 -83 -201 -64 -459 -146 -559 -178
-58 -19 -105 -33 -107 -31 -1 1 -21 76 -44 167 -23 91 -55 210 -71 265 -17 55
-31 105 -33 110 -2 6 -6 17 -9 25 -3 8 -15 47 -27 85 -35 110 -137 378 -195
510 -94 215 -169 364 -308 615 -77 138 -277 450 -371 576 -17 23 -40 54 -51
70 -27 36 -168 218 -175 224 -3 3 -41 48 -85 100 -270 320 -695 722 -1000 946
-22 16 -42 32 -45 35 -12 15 -326 228 -441 299 -460 285 -985 523 -1484 673
-158 48 -323 93 -365 100 -14 3 -43 9 -65 15 -125 33 -412 84 -600 107 -27 4
-61 8 -75 11 -14 2 -59 6 -100 10 -41 3 -86 8 -99 10 -158 24 -831 24 -1061 0
-19 -2 -70 -7 -113 -11 -43 -4 -88 -8 -100 -10 -12 -2 -49 -6 -82 -10 -33 -3
-69 -8 -80 -10 -18 -4 -50 -9 -130 -20 -16 -3 -41 -7 -55 -10 -14 -2 -36 -7
-50 -10 -14 -2 -38 -7 -55 -10 -189 -30 -507 -113 -820 -213 -74 -24 -325
-118 -380 -142 -22 -10 -89 -39 -150 -65 -467 -201 -942 -488 -1390 -839 -49
-39 -92 -73 -95 -77 -3 -3 -34 -30 -70 -60 -236 -194 -585 -550 -807 -824
-357 -441 -658 -929 -877 -1425 -26 -58 -51 -114 -56 -125 -46 -98 -216 -579
-235 -665 -2 -8 -14 -49 -25 -90 -12 -41 -23 -79 -24 -85 -1 -5 -15 -63 -31
-128 -23 -98 -31 -117 -44 -111 -9 3 -29 10 -46 14 -16 4 -95 29 -175 55 -165
53 -530 170 -860 275 -124 40 -274 88 -335 107 -60 19 -171 55 -245 79 -74 23
-154 49 -177 56 -24 7 -43 17 -43 23 0 5 12 53 26 105 13 52 27 104 29 114 21
89 168 554 205 646 10 25 41 105 70 179 130 338 349 800 511 1076 19 33 38 67
42 75 37 83 493 772 536 810 3 3 33 41 66 85 50 66 283 352 320 391 5 7 41 47
80 90 89 101 201 219 337 353 629 627 1342 1140 2135 1539 178 89 244 120 498
230 221 96 544 212 840 302 154 46 497 136 560 146 17 3 46 9 65 14 31 8 107
24 225 46 22 4 42 8 45 9 3 0 28 5 55 10 28 4 57 10 65 11 8 2 35 6 60 9 25 3
70 10 100 15 54 9 81 13 190 25 30 4 66 8 80 10 35 6 133 15 210 21 36 2 83 6
105 9 22 2 96 7 165 10 69 4 126 8 127 9 5 5 682 -2 788 -8z m-135 -2390 c63
-4 133 -9 155 -11 22 -2 69 -7 105 -10 36 -3 79 -8 95 -10 17 -2 55 -6 85 -10
30 -3 80 -10 110 -15 30 -5 73 -12 95 -15 22 -4 47 -8 55 -10 8 -2 38 -7 65
-11 28 -3 53 -8 56 -10 3 -2 69 -17 145 -33 267 -58 670 -181 869 -266 17 -7
62 -25 100 -40 39 -16 74 -32 79 -37 6 -4 16 -8 23 -8 17 0 338 -157 467 -229
60 -34 111 -61 112 -61 1 0 51 -30 110 -66 672 -411 1232 -920 1692 -1537 472
-633 807 -1336 997 -2097 20 -80 39 -154 41 -165 10 -47 15 -72 20 -105 3 -19
7 -37 9 -40 2 -3 6 -24 9 -46 4 -22 9 -51 11 -64 3 -14 14 -88 25 -165 11 -77
22 -153 24 -170 3 -16 8 -70 11 -120 4 -49 9 -99 11 -110 6 -29 17 -332 17
-460 0 -110 -11 -379 -18 -445 -2 -19 -6 -69 -10 -110 -3 -41 -7 -88 -10 -105
-2 -16 -7 -52 -10 -80 -7 -55 -32 -228 -39 -261 -2 -12 -7 -37 -10 -55 -38
-224 -134 -596 -213 -822 -69 -198 -117 -324 -159 -415 -13 -29 -24 -55 -24
-58 0 -15 -178 -377 -240 -489 -414 -745 -996 -1411 -1660 -1900 -52 -38 -97
-72 -100 -75 -3 -3 -13 -9 -22 -15 -9 -5 -67 -44 -130 -86 -221 -149 -438
-274 -683 -394 -135 -66 -373 -170 -465 -204 -19 -7 -44 -17 -55 -21 -191 -77
-715 -228 -885 -255 -19 -3 -55 -10 -80 -15 -49 -10 -197 -35 -270 -45 -25 -3
-56 -8 -70 -10 -14 -2 -50 -6 -80 -10 -30 -3 -71 -8 -90 -10 -232 -27 -630
-36 -920 -21 -79 5 -151 9 -160 11 -8 2 -55 6 -105 10 -49 4 -97 9 -105 10 -8
1 -40 6 -70 10 -120 15 -188 25 -260 40 -14 2 -41 7 -60 10 -75 13 -240 49
-350 77 -63 16 -123 31 -133 33 -27 6 -181 53 -292 90 -295 98 -522 194 -810
339 -916 465 -1673 1136 -2257 2002 -53 77 -97 145 -99 150 -2 5 -34 59 -70
119 -36 61 -79 135 -96 165 -38 68 -193 377 -193 384 0 2 -15 37 -34 78 -124
270 -300 793 -351 1049 -2 9 -12 59 -24 110 -23 108 -29 140 -37 189 -2 19 -9
58 -14 85 -13 71 -29 190 -46 345 -3 30 -7 71 -9 90 -24 219 -24 835 0 1025 2
17 7 62 10 100 3 39 8 81 10 95 2 14 7 48 10 75 3 28 8 64 11 80 2 17 6 44 8
60 8 57 55 300 80 406 126 549 336 1086 621 1594 59 106 258 419 298 470 4 6
25 35 47 65 22 30 48 66 58 79 87 121 303 380 427 510 617 653 1314 1127 2157
1467 62 25 120 47 128 49 8 2 53 17 100 34 337 124 912 255 1255 286 17 2 55
6 85 9 88 10 157 15 290 22 69 3 126 7 127 8 5 4 406 -2 503 -8z m-6476 -7378
c84 -361 231 -792 391 -1143 49 -108 186 -379 224 -444 17 -28 31 -54 31 -56
0 -2 39 -68 86 -147 867 -1439 2296 -2492 3909 -2883 189 -46 192 -47 320 -70
44 -8 91 -17 105 -20 13 -2 40 -7 60 -10 20 -3 45 -7 55 -9 11 -2 45 -7 75
-11 30 -3 66 -8 80 -10 52 -8 107 -14 170 -20 36 -4 81 -8 100 -10 232 -25
890 -25 1085 0 17 2 62 7 100 10 39 4 85 8 103 11 42 5 85 11 147 19 54 7 241
39 348 59 66 13 272 60 337 77 41 11 82 22 91 24 60 13 410 124 479 152 8 3
20 7 25 8 16 4 252 100 340 138 501 218 979 505 1415 851 69 54 143 115 166
135 22 20 72 63 110 96 74 65 410 397 486 482 39 44 225 264 277 328 341 424
677 1003 896 1545 95 236 227 633 259 782 3 13 16 67 29 121 13 53 22 97 19
97 -3 0 -3 2 0 5 4 5 292 -83 488 -148 72 -24 489 -157 560 -179 36 -11 74
-23 85 -28 11 -4 88 -29 170 -55 297 -93 590 -188 597 -194 6 -6 2 -25 -42
-186 -12 -44 -24 -89 -27 -100 -3 -11 -21 -72 -40 -135 -19 -63 -36 -122 -38
-130 -2 -8 -13 -42 -25 -75 -12 -33 -23 -67 -25 -75 -11 -51 -187 -506 -245
-635 -10 -22 -39 -87 -65 -145 -165 -368 -417 -816 -679 -1205 -93 -139 -368
-511 -428 -580 -14 -17 -69 -82 -123 -145 -242 -286 -568 -619 -835 -854 -594
-523 -1288 -980 -1965 -1293 -239 -111 -256 -118 -430 -188 -93 -37 -179 -71
-190 -76 -23 -10 -245 -90 -260 -93 -5 -1 -75 -23 -155 -49 -269 -86 -669
-189 -860 -222 -19 -3 -53 -10 -75 -15 -38 -9 -67 -14 -137 -25 -18 -3 -58
-10 -88 -15 -30 -5 -75 -12 -100 -15 -25 -3 -52 -8 -60 -10 -8 -2 -44 -7 -80
-11 -74 -8 -96 -10 -160 -19 -25 -3 -65 -7 -90 -9 -25 -3 -79 -7 -120 -11 -41
-4 -93 -8 -115 -10 -290 -25 -1027 -25 -1220 0 -16 2 -68 6 -115 10 -85 6
-131 10 -205 20 -22 3 -62 7 -90 10 -27 3 -63 7 -80 10 -16 2 -52 7 -80 11
-27 3 -52 7 -55 9 -3 2 -34 6 -70 10 -36 4 -68 9 -71 11 -3 1 -34 8 -70 14
-102 16 -121 20 -169 30 -25 5 -57 12 -73 14 -15 3 -35 7 -45 10 -9 3 -28 7
-42 10 -14 2 -56 12 -95 21 -38 9 -77 18 -85 20 -176 39 -704 195 -825 244
-11 5 -45 17 -75 29 -363 133 -844 353 -1155 527 -995 556 -1856 1291 -2537
2165 -718 922 -1235 1974 -1513 3080 -23 88 -28 82 108 125 67 22 124 40 127
41 3 0 12 3 20 7 25 9 85 27 90 26 3 0 23 6 45 14 22 9 148 50 280 92 132 42
294 94 360 115 66 21 228 73 360 115 132 42 292 94 355 115 63 21 120 39 125
39 6 1 23 -54 39 -121z"/>
<path d="M8709 16351 c-4 -42 -22 -646 -23 -761 l-1 -65 30 -2 c17 -1 100 -4
185 -6 l155 -4 47 80 c27 44 48 84 48 89 0 4 -34 8 -75 9 -198 2 -195 1 -190
27 1 9 6 139 10 287 4 149 8 289 9 313 l2 42 -40 1 c-23 0 -67 2 -98 3 -47 2
-58 0 -59 -13z"/>
<path d="M9914 16254 c17 -42 17 -96 1 -175 -9 -46 -18 -91 -20 -99 -1 -8 -6
-33 -10 -55 -4 -22 -9 -51 -11 -65 -3 -14 -20 -101 -38 -195 -48 -241 -47
-225 -22 -230 74 -17 338 -67 371 -71 38 -4 42 -2 77 43 21 27 49 60 63 75
l25 27 -37 10 c-21 5 -58 13 -83 17 -25 4 -47 8 -50 9 -3 1 -38 7 -77 14 -40
7 -76 17 -79 22 -4 8 8 88 21 135 2 8 22 7 72 -2 103 -20 102 -21 171 61 69
82 70 76 -28 94 -30 6 -66 13 -80 16 -14 3 -40 8 -58 11 -18 3 -34 9 -36 13
-5 7 20 130 28 138 4 4 85 -7 151 -21 86 -19 79 -21 120 31 22 26 50 59 62 73
13 14 23 27 23 31 0 5 -407 88 -519 105 -41 7 -44 6 -37 -12z"/>
<path d="M6805 16120 c-16 -5 -55 -15 -85 -23 -115 -30 -325 -89 -332 -93 -4
-3 7 -18 23 -35 34 -35 41 -51 68 -152 11 -40 41 -146 66 -237 25 -91 55 -197
65 -237 10 -39 23 -87 29 -106 l12 -35 87 24 c48 13 90 25 93 27 4 1 -8 55
-25 119 l-32 118 53 15 c29 8 77 22 106 30 88 25 148 100 149 184 0 52 -69
300 -95 339 -24 36 -90 73 -128 71 -13 -1 -37 -5 -54 -9z m41 -247 c9 -32 22
-79 29 -105 16 -57 15 -58 -78 -86 -50 -15 -69 -17 -73 -9 -2 7 -17 59 -33
115 -23 84 -26 104 -15 109 44 17 103 32 126 32 25 1 29 -4 44 -56z"/>
<path d="M11334 15863 c6 -54 17 -36 -256 -446 -87 -131 -158 -242 -158 -246
0 -5 39 -24 88 -42 48 -19 90 -35 93 -37 4 -2 28 31 54 73 36 58 52 74 64 69
9 -3 36 -14 61 -24 104 -41 99 -37 94 -67 -2 -15 -7 -34 -9 -41 -3 -8 -8 -35
-11 -61 l-6 -47 94 -36 c51 -20 94 -35 96 -33 1 1 7 27 12 56 4 30 11 68 14
84 3 17 17 98 31 180 14 83 29 173 35 200 5 28 11 66 14 85 3 19 10 58 15 85
5 28 12 70 16 95 4 24 9 48 11 51 4 6 -49 29 -310 131 l-48 19 6 -48z m141
-220 c-3 -21 -10 -54 -15 -73 -5 -19 -11 -49 -13 -65 -5 -34 -29 -148 -32
-153 -2 -3 -107 37 -113 43 -4 3 58 107 68 115 4 3 9 10 11 15 8 20 91 155 96
155 2 0 2 -17 -2 -37z"/>
<path d="M4670 15206 c-52 -35 -157 -104 -233 -154 l-138 -90 44 -25 c34 -20
60 -51 118 -139 314 -481 340 -520 352 -510 30 23 314 208 331 215 16 6 18 16
12 109 -3 56 -7 103 -9 105 -2 1 -48 -27 -102 -63 -55 -36 -118 -77 -141 -90
l-41 -24 -40 63 -40 63 73 48 72 47 -4 57 c-3 31 -6 75 -8 97 -2 25 -8 39 -16
37 -6 -1 -57 -32 -112 -68 -55 -36 -104 -62 -108 -57 -4 4 -24 33 -43 62 l-36
55 99 65 99 66 -4 41 c-2 23 -5 67 -6 98 -1 32 -7 56 -13 55 -6 0 -54 -29
-106 -63z"/>
<path d="M12550 15238 c-40 -27 -56 -50 -223 -314 -103 -163 -127 -209 -131
-245 -4 -48 14 -103 44 -131 21 -20 347 -228 362 -231 5 -1 70 93 144 208
l134 210 -24 20 c-43 36 -129 86 -140 82 -6 -3 -47 -62 -90 -131 -44 -70 -83
-129 -87 -132 -11 -7 -127 69 -132 86 -3 13 211 362 240 391 12 12 36 0 143
-69 l64 -41 81 44 c44 23 80 48 80 55 0 12 -253 179 -312 205 -49 22 -114 19
-153 -7z"/>
<path d="M13690 14478 c-8 -30 -29 -62 -68 -103 -31 -34 -109 -117 -172 -185
-63 -69 -132 -143 -154 -165 -66 -68 -83 -142 -50 -208 9 -18 53 -66 97 -107
44 -41 114 -107 156 -147 l75 -71 36 38 c19 21 81 87 137 146 55 60 114 123
129 139 15 17 81 88 148 159 67 70 120 133 118 138 -3 10 -119 121 -132 126
-5 2 -30 -20 -57 -49 -26 -29 -61 -67 -78 -84 -91 -98 -230 -247 -273 -293
l-49 -53 -56 51 c-32 29 -57 58 -57 65 0 13 4 18 162 186 53 57 109 118 124
134 15 17 56 61 91 98 l64 69 -83 78 c-46 44 -86 80 -90 80 -4 0 -13 -19 -18
-42z"/>
<path d="M3567 14370 l-69 -67 116 -119 115 -119 -57 -57 c-31 -32 -59 -58
-63 -58 -8 0 -40 32 -147 144 -73 75 -86 85 -100 74 -34 -28 -152 -145 -152
-151 0 -3 18 -12 40 -18 22 -7 47 -20 57 -29 17 -16 340 -351 455 -472 l57
-60 71 69 71 68 -115 120 -115 120 61 59 62 59 113 -117 c62 -64 115 -116 119
-116 10 0 134 122 134 132 0 5 -10 19 -22 32 -13 13 -120 123 -238 246 -275
286 -319 330 -322 329 -2 -1 -34 -32 -71 -69z"/>
<path d="M14685 13439 c-19 -42 -45 -62 -425 -342 -80 -58 -158 -117 -174
-129 l-28 -24 51 -69 c29 -39 61 -81 71 -95 10 -14 44 -60 76 -102 31 -43 61
-78 67 -78 34 0 187 24 187 29 0 3 -39 58 -86 121 -47 63 -89 122 -94 131 -8
13 2 25 46 58 30 22 58 41 62 41 5 0 30 -30 57 -66 l48 -66 61 6 c70 7 129 16
135 21 2 2 -31 51 -74 109 -42 58 -74 109 -71 114 7 11 116 86 119 81 92 -130
142 -189 156 -185 9 3 43 8 76 12 66 7 96 12 101 16 1 2 -28 44 -64 94 -208
280 -262 353 -270 358 -5 3 -17 -13 -27 -35z"/>
<path d="M2554 13238 c-64 -90 -134 -186 -156 -215 -21 -29 -38 -56 -38 -62 0
-10 138 -107 143 -100 2 2 23 32 47 67 23 34 47 62 51 62 5 0 73 -46 151 -103
278 -202 389 -279 392 -276 25 31 106 149 106 155 0 5 -42 38 -92 74 -304 217
-433 313 -432 325 1 7 20 37 43 67 22 30 41 59 41 65 0 8 -123 103 -134 103
-3 0 -58 -73 -122 -162z"/>
<path d="M8459 13196 c-2 -2 -42 -6 -89 -10 -162 -11 -312 -32 -525 -71 -263
-49 -678 -180 -920 -290 -389 -177 -694 -363 -1005 -611 -154 -123 -229 -191
-394 -358 -376 -382 -679 -823 -891 -1297 -26 -57 -53 -117 -60 -134 -67 -149
-203 -583 -229 -728 -3 -15 -7 -35 -10 -45 -3 -9 -7 -30 -10 -46 -3 -16 -10
-52 -15 -80 -6 -28 -13 -68 -16 -88 -7 -51 -16 -108 -20 -134 -2 -11 -6 -52
-10 -90 -4 -38 -8 -80 -11 -93 -5 -38 -17 -316 -17 -421 0 -168 19 -447 38
-570 2 -14 7 -45 10 -70 5 -39 12 -83 31 -190 40 -221 165 -650 239 -815 7
-16 28 -66 46 -110 45 -111 193 -399 268 -524 69 -114 197 -309 218 -329 7 -7
13 -17 13 -21 0 -4 8 -16 18 -27 10 -10 31 -37 47 -59 150 -201 425 -490 640
-674 293 -251 636 -475 977 -640 70 -33 130 -61 133 -61 2 0 33 -13 68 -29 71
-33 281 -110 397 -146 275 -87 568 -148 863 -180 23 -2 74 -8 112 -12 145 -16
777 -7 855 12 8 2 44 7 80 10 36 3 72 8 80 10 8 2 33 7 55 10 23 3 52 7 65 10
14 3 52 10 85 16 143 25 401 94 567 149 1020 344 1874 1030 2435 1960 86 142
251 475 307 620 21 52 41 104 46 115 48 106 162 514 194 690 3 17 8 41 11 55
8 40 28 169 40 270 3 25 8 61 10 80 26 202 26 731 0 930 -2 14 -6 52 -10 85
-4 33 -9 67 -10 76 -2 9 -6 40 -10 70 -4 30 -8 56 -10 59 -2 3 -6 30 -10 60
-4 30 -9 58 -11 61 -2 3 -6 19 -8 35 -3 16 -8 40 -11 54 -3 14 -8 36 -11 50
-3 14 -12 50 -20 80 -8 30 -17 62 -19 70 -110 428 -345 945 -605 1329 -224
332 -522 668 -810 911 -36 30 -67 57 -70 61 -13 14 -225 173 -310 231 -120 83
-340 219 -340 211 0 -3 -8 0 -17 8 -28 22 -196 109 -328 169 -150 69 -464 189
-535 205 -8 2 -73 19 -143 39 -110 30 -265 66 -357 82 -155 28 -239 40 -350
50 -41 3 -84 9 -95 11 -22 6 -631 14 -636 9z m12 -559 c2 -191 0 -1349 -2
-1352 -2 -1 -53 -6 -114 -10 -60 -3 -123 -8 -140 -10 -16 -2 -52 -7 -80 -10
-27 -3 -101 -12 -163 -21 -62 -9 -114 -14 -115 -13 -1 2 -15 31 -31 64 -78
165 -182 310 -331 461 -86 88 -210 196 -281 244 -133 92 -212 144 -281 184
-46 26 -83 49 -83 51 0 8 186 98 318 154 203 87 528 193 663 216 19 3 50 10
69 15 37 10 73 17 130 26 149 24 225 34 290 40 41 3 76 7 77 8 1 0 17 2 37 3
l36 2 1 -52z m674 38 c39 -3 77 -8 85 -11 8 -2 35 -6 60 -9 38 -4 111 -16 130
-20 3 -1 25 -5 50 -9 54 -10 258 -58 355 -85 223 -62 568 -201 738 -297 l38
-21 -68 -38 c-407 -223 -761 -571 -909 -890 l-35 -76 -47 6 c-26 3 -56 7 -68
9 -12 2 -45 7 -75 11 -30 3 -70 8 -89 10 -67 8 -135 14 -230 21 -52 3 -97 8
-100 11 -6 5 -8 1372 -2 1390 4 12 24 12 167 -2z m-2536 -897 c273 -149 503
-336 646 -523 49 -64 98 -145 92 -151 -1 -2 -14 -5 -27 -8 -101 -20 -349 -105
-563 -192 -713 -291 -1372 -759 -1890 -1343 -21 -23 -40 -41 -42 -39 -6 6 73
306 113 428 62 189 115 318 206 505 265 541 634 1002 1105 1378 l94 75 95 -44
c52 -24 129 -63 171 -86z m4625 25 c148 -120 442 -411 557 -553 324 -399 559
-824 713 -1290 45 -134 116 -399 116 -429 0 -9 -24 11 -52 44 -58 66 -301 310
-388 390 -384 352 -880 674 -1364 887 -192 84 -518 201 -663 238 -29 8 -53 19
-53 24 0 34 116 183 224 291 125 124 251 220 418 318 110 65 336 177 357 177
8 0 69 -44 135 -97z m-2763 -1061 c0 -43 0 -5958 -1 -5985 0 -19 3 -19 -165
-1 -144 15 -285 37 -435 70 -482 104 -968 314 -1390 603 -139 94 -208 151
-213 173 -19 85 -47 232 -52 273 -4 28 -8 61 -11 75 -24 140 -24 675 0 810 3
14 7 47 10 74 30 267 133 677 244 976 218 587 521 1101 1023 1741 42 53 102
137 134 185 32 49 66 101 76 116 30 43 134 258 162 333 61 166 92 314 101 474
2 54 6 65 22 67 10 2 33 5 49 8 17 3 55 8 85 12 30 3 66 7 80 10 14 2 63 6
110 10 47 4 86 7 87 8 1 1 20 2 42 3 41 2 41 1 42 -35z m694 23 c86 -9 159
-17 174 -20 9 -2 44 -6 79 -10 35 -4 65 -13 67 -19 2 -6 6 -47 9 -91 20 -267
113 -532 284 -809 63 -104 106 -163 207 -291 455 -577 742 -1057 967 -1620
122 -305 239 -744 273 -1025 2 -19 7 -51 9 -70 6 -39 12 -100 21 -205 8 -95 9
-379 1 -490 -8 -114 -34 -319 -46 -365 -5 -19 -12 -53 -16 -74 -3 -22 -10 -51
-16 -65 -5 -14 -9 -27 -8 -29 1 -3 -22 -22 -65 -54 -5 -4 -23 -18 -40 -31 -49
-38 -283 -190 -373 -241 -212 -121 -443 -225 -675 -305 -130 -44 -342 -106
-405 -117 -13 -3 -52 -11 -86 -19 -33 -7 -81 -17 -106 -20 -24 -4 -47 -8 -50
-10 -3 -2 -34 -6 -70 -10 -36 -4 -73 -9 -82 -10 -9 -2 -48 -6 -85 -10 -37 -3
-87 -8 -110 -11 -30 -3 -43 0 -44 8 -1 7 -2 1367 -3 3021 l-1 3008 75 -6 c41
-3 93 -8 115 -10z m-1735 -225 c-24 -134 -110 -333 -212 -492 -29 -46 -102
-146 -162 -223 -168 -214 -274 -357 -370 -500 -97 -142 -276 -430 -276 -442 0
-4 -14 -28 -30 -52 -51 -75 -255 -496 -325 -671 -108 -267 -241 -690 -269
-855 -3 -16 -16 -91 -30 -165 -27 -148 -31 -176 -42 -265 -3 -33 -8 -69 -10
-80 -10 -51 -19 -259 -19 -443 l0 -204 -34 39 c-18 21 -66 81 -105 133 -357
470 -611 1033 -727 1612 -11 57 -23 119 -25 138 -3 19 -7 46 -9 60 -3 14 -7
52 -11 85 -3 33 -7 66 -10 73 -2 7 -7 61 -10 120 -4 59 -8 114 -9 122 -8 44
264 430 457 653 80 91 355 370 433 438 82 71 213 178 290 237 80 60 331 229
396 266 370 213 637 332 1004 449 60 20 111 34 113 32 2 -1 -2 -31 -8 -65z
m2922 -45 c427 -160 823 -377 1184 -651 129 -97 135 -102 284 -233 92 -81 303
-291 365 -362 130 -150 143 -165 311 -384 8 -11 58 -84 110 -163 l95 -142 -5
-93 c-5 -89 -22 -263 -31 -317 -3 -14 -7 -43 -10 -65 -4 -22 -18 -94 -31 -160
-14 -66 -27 -131 -30 -145 -3 -14 -19 -72 -35 -130 -133 -467 -320 -854 -610
-1265 -38 -54 -143 -189 -174 -223 -9 -10 -11 30 -12 165 0 161 -9 387 -18
432 -2 9 -6 46 -9 82 -4 36 -8 76 -10 90 -3 13 -7 46 -11 72 -4 27 -8 59 -11
70 -2 12 -7 38 -10 57 -33 209 -168 702 -233 855 -5 11 -19 47 -32 80 -211
559 -583 1191 -1027 1745 -167 208 -302 438 -351 600 -26 84 -49 188 -44 194
6 6 206 -58 345 -109z"/>
<path d="M2914 4999 c-32 -23 -63 -45 -68 -49 -5 -5 12 -37 38 -74 25 -35 46
-68 46 -73 -1 -4 -95 -73 -211 -153 -116 -80 -218 -151 -227 -158 -9 -6 -36
-26 -60 -42 l-43 -31 52 -75 c29 -41 55 -77 59 -79 6 -4 141 87 365 245 17 12
65 46 107 75 l78 54 42 -61 c24 -34 46 -67 50 -72 9 -14 150 83 144 99 -8 22
-299 435 -306 435 -4 0 -33 -18 -66 -41z"/>
<path d="M14289 4797 c-136 -191 -179 -253 -179 -261 0 -2 20 -6 44 -8 47 -6
27 7 448 -291 114 -81 210 -147 215 -147 4 0 63 79 131 174 l122 174 -43 91
c-51 106 -34 113 -156 -61 -92 -130 -80 -125 -163 -66 l-48 34 50 69 c28 38
50 72 50 75 0 3 -20 45 -44 94 l-43 88 -63 -88 c-35 -49 -71 -99 -81 -111
l-17 -23 -61 45 -61 45 69 97 c65 91 68 99 56 123 -7 14 -25 51 -39 82 -15 32
-31 60 -35 62 -5 3 -73 -86 -152 -197z"/>
<path d="M3727 4063 c-2 -4 -10 -26 -17 -47 -12 -36 -195 -232 -492 -526 l-47
-46 69 -69 70 -70 118 117 117 117 61 -59 60 -58 -113 -116 c-62 -64 -113
-118 -113 -121 0 -7 94 -101 122 -124 16 -12 29 -2 120 92 57 58 187 191 291
296 103 104 187 194 187 199 0 9 -124 132 -134 132 -3 0 -56 -52 -119 -116
l-113 -115 -62 59 -62 59 88 91 c48 49 99 103 114 119 l27 28 -38 40 c-71 76
-129 127 -134 118z"/>
<path d="M13576 3938 c-36 -34 -66 -65 -66 -70 0 -4 38 -47 84 -95 46 -49 109
-115 141 -148 31 -33 95 -100 142 -148 l87 -88 -54 -54 c-30 -30 -60 -55 -66
-55 -7 0 -27 15 -45 34 -85 86 -405 419 -410 428 -4 5 -45 -27 -93 -73 -48
-45 -83 -86 -79 -89 4 -4 24 -13 44 -19 26 -8 77 -55 190 -172 225 -235 262
-273 286 -292 31 -26 113 -33 154 -13 19 9 103 83 187 164 l152 147 -77 80
c-326 340 -442 461 -469 491 -18 19 -34 34 -37 34 -2 0 -34 -28 -71 -62z"/>
<path d="M4709 3178 c-1 -50 -12 -75 -66 -157 -31 -47 -123 -186 -205 -309
-81 -122 -148 -226 -148 -231 0 -4 57 -45 128 -91 70 -46 150 -99 178 -117
l52 -34 78 41 c44 23 83 45 87 49 5 5 -52 48 -125 96 -73 48 -135 89 -137 91
-6 5 73 124 82 124 5 0 40 -20 77 -45 l69 -44 90 47 89 47 -113 75 -114 76 41
62 c22 34 43 62 47 62 3 -1 49 -29 101 -64 l95 -63 87 46 c48 25 88 48 87 51
-1 7 -463 310 -472 310 -4 0 -7 -10 -8 -22z"/>
<path d="M12468 3030 c-141 -93 -171 -117 -189 -152 -40 -79 -30 -107 126
-349 77 -118 152 -231 169 -253 47 -61 125 -83 193 -53 62 26 362 230 356 241
-11 18 -263 408 -269 414 -3 5 -164 -98 -164 -106 0 -3 23 -38 50 -79 28 -40
50 -75 50 -78 0 -2 17 -30 39 -62 l38 -58 -65 -42 c-39 -25 -71 -39 -79 -35
-16 10 -253 372 -253 388 0 7 43 40 95 73 l95 62 -6 62 c-3 34 -6 79 -7 100 0
20 -3 37 -6 37 -3 0 -81 -50 -173 -110z"/>
<path d="M11275 2406 c-71 -29 -147 -61 -168 -69 l-38 -16 39 -35 c35 -32 39
-42 51 -118 16 -98 17 -105 25 -138 3 -14 8 -38 11 -55 3 -16 9 -55 15 -85 5
-30 11 -66 13 -80 16 -95 50 -287 53 -298 4 -15 23 -11 99 23 28 13 60 26 73
30 25 7 25 6 2 124 -6 30 -7 58 -3 62 10 9 165 71 168 67 11 -14 85 -133 87
-140 3 -7 169 51 196 68 2 1 -25 44 -60 96 -34 51 -67 101 -73 110 -45 78
-341 508 -350 507 -5 0 -68 -24 -140 -53z m110 -221 c17 -27 55 -87 83 -132
l51 -82 -37 -12 c-20 -6 -42 -16 -49 -21 -16 -13 -35 -6 -39 13 -2 7 -10 50
-19 94 -9 44 -19 91 -21 105 -3 14 -9 41 -14 60 -14 49 -12 71 2 45 6 -11 25
-42 43 -70z"/>
<path d="M6593 2168 c0 -62 -14 -123 -96 -407 -53 -184 -95 -336 -93 -338 7
-7 178 -54 183 -50 4 5 12 31 49 167 8 30 17 56 19 58 2 2 30 -4 62 -13 87
-25 94 -27 140 -32 73 -8 156 34 187 96 25 48 88 285 87 324 0 21 -7 50 -15
65 -31 60 -57 72 -288 138 -122 35 -225 64 -229 64 -3 0 -6 -33 -6 -72z m324
-211 c10 -10 7 -31 -16 -111 -15 -54 -33 -101 -40 -105 -7 -4 -45 1 -85 13
l-74 20 15 51 c7 27 23 80 33 116 l20 66 67 -18 c37 -11 73 -25 80 -32z"/>
<path d="M10329 2096 c-2 -2 -17 -6 -34 -9 -48 -7 -488 -97 -505 -103 -9 -3
-11 -8 -4 -12 48 -33 65 -101 188 -725 7 -37 16 -70 19 -74 4 -3 35 0 69 7 35
7 74 14 88 16 14 3 33 7 42 10 10 3 30 7 45 10 16 2 39 7 53 10 14 3 36 8 50
10 79 14 75 9 103 100 30 94 33 116 15 109 -33 -12 -301 -64 -308 -60 -17 11
-31 150 -15 151 6 0 42 6 81 13 l71 14 28 86 c15 47 30 91 32 98 5 13 3 13
-92 -7 -153 -31 -175 -34 -176 -21 -1 6 -2 14 -3 19 -2 9 -15 69 -20 98 -4 18
3 22 62 34 37 8 69 15 72 15 3 1 24 5 48 9 47 9 54 19 86 134 16 57 17 80 5
68z"/>
<path d="M8706 1898 c-8 -4 -11 -28 -10 -70 1 -35 5 -166 9 -293 4 -126 8
-268 10 -315 2 -47 4 -102 4 -123 l1 -37 182 5 c101 3 186 9 190 13 8 9 88
161 88 168 0 3 -56 4 -125 2 -69 -2 -129 -2 -134 1 -5 4 -12 105 -16 226 -4
121 -8 256 -10 300 -2 44 -4 92 -4 108 l-1 27 -86 -2 c-47 -2 -91 -6 -98 -10z"/>
</g>
</svg>
